# xmcd
#
# Track frame offsets:
#	150
#	15690
#	35545
#	45946
#	63851
#	99454
#	116540
#	133285
#	155160
#	169802
#
# Disc length: 2385 seconds
#
# Revision: 1
# Processed by: cddbd v1.4PL0 Copyright (c) Steve Scherf et al.
# Submitted via: audiograbber 1.82.02
#
DISCID=80094f0a
DTITLE=John Campbelljohn Trio - Live In Germany Disc 2
DYEAR=2003
DGENRE=Blues
TTITLE0=Let's Get Twisted
TTITLE1=Can't Be Satisfied
TTITLE2=Wife and Family
TTITLE3=He Love 'Er
TTITLE4=Guilt Trips
TTITLE5=Don't You Get Your Fingers Dirty
TTITLE6=Bullfrog Blues
TTITLE7=Slow Down
TTITLE8=Take It Out On The Street
TTITLE9=Tanz Des Siebenschläfers
EXTD=
EXTT0=
EXTT1=
EXTT2=
EXTT3=
EXTT4=
EXTT5=
EXTT6=
EXTT7=
EXTT8=
EXTT9=
PLAYORDER=
